
<svg version="1.1" id="Capa_1" xmlns="http://www.w3.org/2000/svg" xmlns:xlink="http://www.w3.org/1999/xlink" x="0px" y="0px"
	 viewBox="0 0 2122 2122" style="enable-background:new 0 0 2122 2122;" xml:space="preserve">
<g>
	<path style="fill:#43A6D6;" d="M1754.996,1852.645l-356.129-556.185c-5.808-9.07-17.867-11.715-26.937-5.907l-0.628,0.402
		l-34.159-53.348l-0.401-0.13c9.22-7.799,11.557-21.337,4.866-31.786l-50.941-79.559c201.396-179.64,248.346-483.902,98.167-718.446
		C1222.295,147.593,876.442,71.752,616.35,238.291c-260.093,166.538-335.933,512.39-169.394,772.483
		c150.138,234.479,446.003,319.172,693.391,211.562l50.963,79.59c6.688,10.445,19.954,13.99,30.893,8.887l-0.037,0.413
		l34.159,53.349l0,0l-1.848,1.183c-9.07,5.807-11.714,17.868-5.907,26.937l356.128,556.186c14.53,22.69,44.701,29.307,67.392,14.778
		l68.129-43.624C1762.908,1905.507,1769.524,1875.335,1754.996,1852.645z"/>
	<path style="fill:#008EC8;" d="M1327.482,446.968c-92.836-144.982-249.792-224.171-410.037-224.155
		c-89.761-0.006-180.637,24.845-261.813,76.828C510.65,392.475,431.461,549.431,431.477,709.677
		c-0.005,89.761,24.845,180.637,76.828,261.813c92.833,144.981,249.79,224.171,410.036,224.154
		c89.761,0.005,180.637-24.845,261.813-76.827c144.98-92.835,224.17-249.791,224.154-410.036
		C1404.314,619.02,1379.464,528.145,1327.482,446.968z"/>
	
		<rect x="1228.47" y="1269.417" transform="matrix(0.8422 -0.5392 0.5392 0.8422 -496.9113 904.6161)" style="fill:#D0D0D0;" width="136.528" height="63.348"/>
	
		<rect x="1234.399" y="1289.671" transform="matrix(0.8422 -0.5392 0.5392 0.8422 -512.8269 890.7571)" style="fill:#B2B2B2;" width="61.404" height="63.347"/>
	<path style="fill:#503949;" d="M1740.217,1920.036l-68.129,43.624c-22.691,14.529-52.862,7.912-67.392-14.778l-356.128-556.186
		c-5.807-9.07-3.163-21.13,5.907-26.937l117.454-75.207c9.07-5.807,21.13-3.163,26.937,5.907l356.129,556.185
		C1769.524,1875.335,1762.908,1905.507,1740.217,1920.036z"/>
	<path style="fill:#3E2C3B;" d="M1698.37,1907.535c-22.691,14.529-52.862,7.913-67.392-14.778L1282.18,1348.02l-27.705,17.739
		c-9.07,5.807-11.714,17.867-5.907,26.937l356.128,556.186c14.529,22.69,44.701,29.307,67.39,14.778l68.13-43.624
		c18.061-11.565,25.893-33.035,21.027-52.76L1698.37,1907.535z"/>
	<path style="fill:#008EC8;" d="M1190.545,1163.394l-66.748,34.439c-243.211,94.889-524.555,25.654-682.453-217.704
		c-44.466-68.532-70.323-159.593-81.534-235.486c5.734,91.701,34.087,183.268,87.145,266.132
		c150.131,234.468,445.948,319.052,693.331,211.465l51.024,79.688c7.287,11.381,22.422,14.7,33.803,7.412l41.76-26.739
		L1190.545,1163.394z"/>
	
		<ellipse transform="matrix(0.7071 -0.7071 0.7071 0.7071 -232.6561 856.7778)" style="fill:#C1E6FB;" cx="917.894" cy="709.23" rx="459.636" ry="459.636"/>
	
		<ellipse transform="matrix(0.9968 -0.0797 0.0797 0.9968 -35.8767 72.9421)" style="fill:#E4F4FE;" cx="895.373" cy="485.685" rx="293.803" ry="209.266"/>
	<path style="fill:#EDEDED;" d="M1349.603,1294.732L1349.603,1294.732c-5.463,3.499-12.796,1.89-16.294-3.573l-13.782-21.523
		c-3.498-5.464-1.891-12.796,3.573-16.295c5.464-3.498,12.796-1.89,16.295,3.573l13.781,21.524
		C1356.675,1283.902,1355.067,1291.234,1349.603,1294.732z"/>
	<path style="fill:#694D5A;" d="M1716.588,1852.682L1716.588,1852.682c-9.258,5.928-21.682,3.203-27.61-6.055l-318.388-497.245
		c-5.928-9.258-3.203-21.682,6.054-27.61c9.258-5.927,21.683-3.203,27.61,6.055l318.388,497.245
		C1728.57,1834.33,1725.846,1846.755,1716.588,1852.682z"/>
</g>
</svg>
