<svg width="54" height="54" viewBox="0 0 54 54" fill="none" xmlns="http://www.w3.org/2000/svg">
<rect width="54" height="54" rx="16" fill="url(#paint0_linear_16169_2141)"/>
<path d="M15.7231 25.0596C15.3577 24.7216 15.5562 24.1106 16.0505 24.052L23.0547 23.2212C23.2561 23.1974 23.4311 23.0708 23.5161 22.8866L26.4704 16.4819C26.6789 16.0299 27.3215 16.0298 27.5299 16.4818L30.4842 22.8865C30.5692 23.0707 30.743 23.1976 30.9445 23.2214L37.9491 24.052C38.4434 24.1106 38.6413 24.7218 38.2759 25.0597L33.0981 29.8489C32.9491 29.9866 32.8828 30.1917 32.9224 30.3906L34.2965 37.3086C34.3935 37.7968 33.8739 38.1751 33.4396 37.932L27.285 34.486C27.108 34.387 26.8929 34.3874 26.7159 34.4865L20.5607 37.9311C20.1263 38.1742 19.6058 37.7968 19.7028 37.3086L21.0772 30.3911C21.1167 30.1921 21.0506 29.9866 20.9016 29.8489L15.7231 25.0596Z" stroke="white" stroke-width="2" stroke-linecap="round" stroke-linejoin="round"/>
<defs>
<linearGradient id="paint0_linear_16169_2141" x1="51.6857" y1="64.6423" x2="11.8029" y2="3.17413e-06" gradientUnits="userSpaceOnUse">
<stop stop-color="#4B63C4"/>
<stop offset="0.54412" stop-color="#9486D4"/>
<stop offset="1" stop-color="#C16ED5"/>
</linearGradient>
</defs>
</svg>
